<?xml version="1.0" standalone="no"?><!DOCTYPE svg PUBLIC "-//W3C//DTD SVG 1.1//EN" "http://www.w3.org/Graphics/SVG/1.1/DTD/svg11.dtd"><svg t="1665143919847" class="icon" viewBox="0 0 1024 1024" version="1.1" xmlns="http://www.w3.org/2000/svg" p-id="7082" xmlns:xlink="http://www.w3.org/1999/xlink" width="128" height="128"><path d="M844.8 128h-120a52.8 52.8 0 0 0-52.8 52.8v120a52.8 52.8 0 0 0 52.8 51.2h120a52.8 52.8 0 0 0 51.2-51.2v-120A52.8 52.8 0 0 0 844.8 128zM864 300.8a20.8 20.8 0 0 1-19.2 19.2h-120a20.8 20.8 0 0 1-20.8-19.2v-120a20.8 20.8 0 0 1 20.8-20.8h120a20.8 20.8 0 0 1 19.2 20.8zM200 352h352a72 72 0 0 0 72-72v-80A72 72 0 0 0 552 128h-352A72 72 0 0 0 128 200v80a72 72 0 0 0 72 72zM160 200a40 40 0 0 1 40-40h352a40 40 0 0 1 40 40v80a40 40 0 0 1-40 40h-352a40 40 0 0 1-40-40zM844.8 672h-120a52.8 52.8 0 0 0-52.8 52.8v120a52.8 52.8 0 0 0 52.8 51.2h120a52.8 52.8 0 0 0 51.2-51.2v-120a52.8 52.8 0 0 0-51.2-52.8zM864 844.8a20.8 20.8 0 0 1-19.2 19.2h-120a20.8 20.8 0 0 1-20.8-19.2v-120a20.8 20.8 0 0 1 20.8-20.8h120a20.8 20.8 0 0 1 19.2 20.8zM552 672h-352A72 72 0 0 0 128 744v80a72 72 0 0 0 72 72h352a72 72 0 0 0 72-72v-80a72 72 0 0 0-72-72z m40 152a40 40 0 0 1-40 40h-352a40 40 0 0 1-40-40v-80a40 40 0 0 1 40-40h352a40 40 0 0 1 40 40zM180.8 624h120a52.8 52.8 0 0 0 51.2-51.2v-120a52.8 52.8 0 0 0-51.2-52.8h-120A52.8 52.8 0 0 0 128 452.8v120a52.8 52.8 0 0 0 52.8 51.2zM160 452.8a20.8 20.8 0 0 1 20.8-20.8h120a20.8 20.8 0 0 1 19.2 20.8v120a20.8 20.8 0 0 1-19.2 19.2h-120a20.8 20.8 0 0 1-20.8-19.2zM824 400h-352a72 72 0 0 0-72 72v80a72 72 0 0 0 72 72h352a72 72 0 0 0 72-72v-80a72 72 0 0 0-72-72z m40 152a40 40 0 0 1-40 40h-352a40 40 0 0 1-40-40v-80a40 40 0 0 1 40-40h352a40 40 0 0 1 40 40z" fill="#13227a" p-id="7083"></path></svg>